<?xml version="1.0" encoding="iso-8859-1"?>
<!-- Uploaded to: SVG Repo, www.svgrepo.com, Generator: SVG Repo Mixer Tools -->
<!DOCTYPE svg PUBLIC "-//W3C//DTD SVG 1.1//EN" "http://www.w3.org/Graphics/SVG/1.1/DTD/svg11.dtd">
<svg fill="#000000" version="1.1" id="Capa_1" xmlns="http://www.w3.org/2000/svg" xmlns:xlink="http://www.w3.org/1999/xlink" 
	 width="800px" height="800px" viewBox="0 0 141.024 141.023"
	 xml:space="preserve">
<g>
	<path d="M131.894,44.958c0,5.33-4.319,9.651-9.649,9.651H96.351h-1.178H80.649c-1.699-3.352-3.947-6.441-6.703-9.147
		c-6.563-6.447-15.247-9.998-24.449-9.997c-2.073,0-4.102,0.191-6.077,0.54c1.337-7.356,7.763-12.938,15.504-12.938
		c3.86,0,7.395,1.389,10.136,3.691C69.352,11.932,81.454,0,96.352,0c15.079,0,27.305,12.224,27.305,27.304
		c0,2.79-0.42,5.479-1.197,8.014C127.687,35.434,131.894,39.701,131.894,44.958z M109.915,83.473c0-9.893-8.021-17.912-17.91-17.912
		c-4.385,0-8.398,1.577-11.512,4.192c-0.107-5.523-1.668-10.689-4.303-15.144c-5.396-9.124-15.324-15.247-26.693-15.247
		c-2.154,0-4.255,0.221-6.286,0.639C29.098,42.906,18.486,55.4,18.486,70.373c0,3.167,0.478,6.225,1.36,9.102
		c-5.939,0.131-10.717,4.979-10.717,10.949c0,6.053,4.907,10.959,10.96,10.959h29.406h1.337H92
		C101.894,101.383,109.915,93.364,109.915,83.473z M27.437,109.861l10.133,20.183l6.967-3.497l-10.133-20.184L27.437,109.861z
		 M49.833,120.836l10.133,20.184l6.968-3.498l-10.133-20.185L49.833,120.836z M72.229,109.862l10.133,20.183l6.969-3.498
		l-10.133-20.184L72.229,109.862z M94.636,120.84l10.133,20.184l6.968-3.498l-10.134-20.184L94.636,120.84z"/>
</g>
</svg>